<?xml version="1.0" encoding="UTF-8" standalone="no"?>
<!DOCTYPE svg PUBLIC "-//W3C//DTD SVG 1.1//EN" "http://www.w3.org/Graphics/SVG/1.1/DTD/svg11.dtd">
<svg version="1.1" xmlns="http://www.w3.org/2000/svg" xmlns:xlink="http://www.w3.org/1999/xlink" preserveAspectRatio="xMidYMid meet" viewBox="104.82517482517486 101.85314685314682 90.46000000000004 80.00000000000003" width="18.09" height="16"><defs><path d="M166.03 101.85C182.19 101.85 195.29 114.95 195.29 131.11C195.29 141.26 195.29 142.45 195.29 152.59C195.29 168.75 182.19 181.85 166.03 181.85C153.79 181.85 146.32 181.85 134.08 181.85C117.92 181.85 104.83 168.75 104.83 152.59C104.83 142.45 104.83 141.26 104.83 131.11C104.83 114.95 117.92 101.85 134.08 101.85C146.32 101.85 153.79 101.85 166.03 101.85Z" id="eMB2dIG7U"></path><path d="M152.46 139.43C152.46 127.79 152.46 121.33 152.46 120.03C152.46 118.69 151.38 117.61 150.05 117.61C148.73 117.61 147.65 118.69 147.65 120.03C147.65 121.33 147.65 127.79 147.65 139.43C136.13 139.43 129.73 139.43 128.45 139.43C127.12 139.43 126.04 140.51 126.04 141.85C126.04 143.19 127.12 144.28 128.45 144.28C129.73 144.28 136.13 144.28 147.65 144.28C147.65 155.92 147.65 162.38 147.65 163.67C147.65 165.01 148.73 166.1 150.05 166.1C151.38 166.1 152.46 165.01 152.46 163.67C152.46 162.38 152.46 155.92 152.46 144.28C163.98 144.28 170.38 144.28 171.66 144.28C172.99 144.28 174.07 143.19 174.07 141.85C174.07 140.51 172.99 139.43 171.66 139.43C169.1 139.43 162.7 139.43 152.46 139.43Z" id="he89tfnPC"></path></defs><g><g><g><use xlink:href="#eMB2dIG7U" opacity="1" fill="#2970ff" fill-opacity="1"></use><g><use xlink:href="#eMB2dIG7U" opacity="1" fill-opacity="0" stroke="#24f4d5" stroke-width="0" stroke-opacity="1"></use></g></g><g><use xlink:href="#he89tfnPC" opacity="1" fill="#ffffff" fill-opacity="1"></use><g><use xlink:href="#he89tfnPC" opacity="1" fill-opacity="0" stroke="#000000" stroke-width="1" stroke-opacity="0"></use></g></g></g></g></svg>