<svg width="200px" height="34px" viewBox="0 0 127 22" version="1.1" xmlns="http://www.w3.org/2000/svg" xmlns:xlink="http://www.w3.org/1999/xlink">
    <title>cms-logo-light</title>
    <g id="Page-1" stroke="none" stroke-width="1" fill="none" fill-rule="evenodd">
        <g id="cms-logo-light" fill="#99c1e3" fill-rule="nonzero">
            <path d="M34.3173202,0.642463768 L36.1610449,0.642463768 C38.430965,0.642463768 39.6447634,1.98557971 39.6447634,4.37289855 C39.6447634,6.76021739 38.430965,8.17268116 36.2055378,8.17268116 L34.3173202,8.17268116 L34.3173202,0.642463768 Z M36.0931346,7.39152174 C37.8104057,7.39152174 38.6784081,6.27557971 38.6784081,4.37289855 C38.6784081,2.47021739 37.8127474,1.42362319 36.0931346,1.42362319 L35.2501106,1.42362319 L35.2501106,7.39152174 L36.0931346,7.39152174 Z" id="Shape"></path>
            <path d="M40.5260356,5.39478261 C40.5260356,3.56942029 41.728906,2.45666667 42.9770498,2.45666667 C44.3703811,2.45666667 45.1572034,3.47775362 45.1572034,5.07355072 C45.1591617,5.25376693 45.1479423,5.43388097 45.1236386,5.6123913 L41.4369699,5.6123913 C41.5040996,6.79528986 42.2120836,7.55253623 43.2580578,7.55253623 C43.7434308,7.54685422 44.2163957,7.39519616 44.6178242,7.11652174 L44.9433251,7.73586957 C44.4134268,8.10383883 43.7887775,8.30352057 43.1479963,8.30978261 C41.6828519,8.30978261 40.5260356,7.21934783 40.5260356,5.39478261 Z M44.3508666,4.93565217 C44.3508666,3.81094203 43.8567609,3.20275362 43.0020283,3.20275362 C42.2378427,3.20275362 41.5407867,3.83326087 41.4283835,4.93565217 L44.3508666,4.93565217 Z" id="Shape"></path>
            <path d="M45.9463675,5.39478261 C45.9463675,3.52398551 47.171094,2.45666667 48.576134,2.45666667 C49.2958267,2.45666667 49.790713,2.75478261 50.1724155,3.11028986 L49.7040688,3.73043478 C49.3918377,3.44347826 49.0522864,3.23702899 48.61126,3.23702899 C47.6214874,3.23702899 46.9025753,4.10905797 46.9025753,5.39478261 C46.9025753,6.67014493 47.5879226,7.52942029 48.5886232,7.52942029 C49.0944376,7.52942029 49.5323417,7.27673913 49.8695513,6.97144928 L50.2746712,7.60275362 C49.7915556,8.05256891 49.1635191,8.3055841 48.5097849,8.31376812 C47.0586908,8.30978261 45.9463675,7.24246377 45.9463675,5.39478261 Z" id="Path"></path>
            <path d="M51.1793608,2.59376812 L51.944327,2.59376812 L52.0223848,3.60369565 L52.0567302,3.60369565 C52.4275046,2.90384058 52.9934235,2.45666667 53.6077382,2.45666667 C53.8085391,2.45027608 54.0082256,2.48947977 54.1923909,2.57144928 L54.0159803,3.39724638 C53.8464934,3.33514003 53.6675922,3.30410732 53.4875292,3.30557971 C53.0269883,3.30557971 52.4727781,3.64992754 52.105126,4.59130435 L52.105126,8.17268116 L51.1793608,8.17268116 L51.1793608,2.59376812 Z" id="Path"></path>
            <path d="M54.4062692,5.39478261 C54.4062692,3.56942029 55.6091395,2.45666667 56.8565028,2.45666667 C58.2506146,2.45666667 59.037437,3.47775362 59.037437,5.07355072 C59.0390035,5.25375622 59.0277859,5.43384091 59.0038722,5.6123913 L55.3140811,5.6123913 C55.3812108,6.79528986 56.0891948,7.55253623 57.1343884,7.55253623 C57.6200061,7.54686907 58.093225,7.39521663 58.4949355,7.11652174 L58.8204364,7.73586957 C58.3520897,8.04594203 57.7643147,8.30978261 57.0251076,8.30978261 C55.5607437,8.30978261 54.4062692,7.21934783 54.4062692,5.39478261 Z M58.2311002,4.93565217 C58.2311002,3.81094203 57.7362139,3.20275362 56.8822618,3.20275362 C56.1180762,3.20275362 55.4210203,3.83326087 55.3086171,4.93565217 L58.2311002,4.93565217 Z" id="Shape"></path>
            <path d="M59.8289428,5.39478261 C59.8289428,3.58137681 60.9529748,2.45666667 62.200338,2.45666667 C62.8302643,2.45666667 63.2455317,2.6957971 63.7294899,3.09913043 L63.6842163,2.1426087 L63.6842163,0 L64.6170068,0 L64.6170068,8.17268116 L63.85126,8.17268116 L63.7732022,7.51826087 L63.7396374,7.51826087 C63.3126613,7.94311594 62.7248863,8.30978261 62.0871543,8.30978261 C60.7164597,8.30978261 59.8289428,7.25362319 59.8289428,5.39478261 Z M63.6842163,6.74985507 L63.6842163,3.83326087 C63.2236755,3.4092029 62.8076275,3.24818841 62.3572342,3.24818841 C61.4806454,3.24818841 60.7835894,4.10905797 60.7835894,5.38282609 C60.7835894,6.71478261 61.3299939,7.51826087 62.2893239,7.51826087 C62.7959189,7.51826087 63.2346036,7.26557971 63.6842163,6.74905797 L63.6842163,6.74985507 Z" id="Shape"></path>
            <path d="M68.3715857,4.40717391 C68.3715857,1.98557971 69.764917,0.505362319 71.6422065,0.505362319 C72.4161363,0.503609322 73.1533284,0.842252 73.665464,1.43478261 L73.1596497,2.05492754 C72.7693608,1.63007246 72.2830608,1.34311594 71.6531346,1.34311594 C70.2598033,1.34311594 69.337941,2.51405797 69.337941,4.38485507 C69.337941,6.27876812 70.2262385,7.47202899 71.6195698,7.47202899 C72.3275538,7.47202899 72.8560049,7.15318841 73.3282545,6.62311594 L73.8426552,7.21934783 C73.258783,7.90804348 72.5390904,8.30978261 71.5836632,8.30978261 C69.7422803,8.30978261 68.3715857,6.86384058 68.3715857,4.40717391 Z" id="Path"></path>
            <path d="M74.4132575,5.39478261 C74.4132575,3.52398551 75.6044192,2.45666667 76.9423294,2.45666667 C78.2802397,2.45666667 79.4714014,3.52398551 79.4714014,5.39478261 C79.4714014,7.24246377 78.2794591,8.30978261 76.9423294,8.30978261 C75.6051998,8.30978261 74.4132575,7.24246377 74.4132575,5.39478261 Z M78.5159742,5.39478261 C78.5159742,4.10905797 77.8860479,3.23702899 76.9423294,3.23702899 C75.9986109,3.23702899 75.3686847,4.10905797 75.3686847,5.39478261 C75.3686847,6.67014493 76.0087585,7.52942029 76.9423294,7.52942029 C77.8759004,7.52942029 78.5159742,6.66855072 78.5159742,5.39478261 L78.5159742,5.39478261 Z" id="Shape"></path>
            <path d="M80.642268,2.59376812 L81.4064536,2.59376812 L81.4845114,3.39724638 L81.5180762,3.39724638 C82.0355993,2.86956522 82.5976152,2.45666667 83.3500922,2.45666667 C84.4967609,2.45666667 85.014284,3.21391304 85.014284,4.63673913 L85.014284,8.17268116 L84.0924216,8.17268116 L84.0924216,4.76347826 C84.0924216,3.71847826 83.7801905,3.27130435 83.0581561,3.27130435 C82.4961401,3.27130435 82.113657,3.56942029 81.5633497,4.13217391 L81.5633497,8.17268116 L80.6414874,8.17268116 L80.642268,2.59376812 Z" id="Path"></path>
            <path d="M86.6074431,6.45094203 L86.6074431,3.36297101 L85.797984,3.36297101 L85.797984,2.65115942 L86.6527167,2.59376812 L86.7651199,1.03623188 L87.5402336,1.03623188 L87.5402336,2.59376812 L89.0131838,2.59376812 L89.0131838,3.36297101 L87.5402336,3.36297101 L87.5402336,6.46210145 C87.5402336,7.1507971 87.7541119,7.54137681 88.3832575,7.54137681 C88.5959147,7.52592495 88.804704,7.47531471 89.0014751,7.39152174 L89.1817886,8.10333333 C88.8781438,8.20695652 88.5073694,8.30978261 88.1670375,8.30978261 C87.0008543,8.30978261 86.6074431,7.55253623 86.6074431,6.45094203 Z" id="Path"></path>
            <path d="M90.0201291,2.59376812 L90.7811924,2.59376812 L90.8592502,3.60369565 L90.892815,3.60369565 C91.2635894,2.90384058 91.8295083,2.45666667 92.443823,2.45666667 C92.6446363,2.45011593 92.844357,2.48932633 93.0284757,2.57144928 L92.8489428,3.39724638 C92.6794351,3.33522104 92.5005481,3.30419079 92.3204917,3.30557971 C91.8591703,3.30557971 91.3057406,3.64992754 90.9380885,4.59130435 L90.9380885,8.17268116 L90.0162262,8.17268116 L90.0201291,2.59376812 Z" id="Path"></path>
            <path d="M93.4523294,6.72594203 C93.4523294,5.50956522 94.4756669,4.90137681 96.8017886,4.63673913 C96.8017886,3.92572464 96.5777628,3.23702899 95.6785372,3.23702899 C95.0486109,3.23702899 94.4756669,3.53514493 94.0486908,3.83326087 L93.6888445,3.17963768 C94.1946589,2.84644928 94.9588445,2.45666667 95.8354333,2.45666667 C97.1733436,2.45666667 97.7353596,3.36297101 97.7353596,4.75152174 L97.7353596,8.17268116 L96.9711739,8.17268116 L96.8931162,7.50630435 L96.8595513,7.50630435 C96.3420283,7.94311594 95.7355194,8.30978261 95.0493915,8.30978261 C94.1376767,8.30978261 93.4523294,7.72471014 93.4523294,6.72594203 Z M96.8017886,6.80565217 L96.8017886,5.26086957 C94.9814813,5.49043478 94.351555,5.94956522 94.351555,6.66137681 C94.351555,7.29268116 94.7793116,7.55652174 95.3186908,7.55652174 C95.8580701,7.55652174 96.274118,7.28869565 96.8017886,6.80644928 L96.8017886,6.80565217 Z" id="Shape"></path>
            <path d="M98.8117763,5.39478261 C98.8117763,3.52398551 100.037283,2.45666667 101.442323,2.45666667 C102.161235,2.45666667 102.656122,2.75478261 103.038605,3.11028986 L102.570258,3.73043478 C102.258027,3.44347826 101.918476,3.23702899 101.477449,3.23702899 C100.488457,3.23702899 99.7687646,4.10905797 99.7687646,5.39478261 C99.7687646,6.67014493 100.454892,7.52942029 101.454813,7.52942029 C101.960627,7.52942029 102.399312,7.27673913 102.736521,6.97144928 L103.14086,7.60275362 C102.657902,8.05282567 102.029766,8.30588103 101.375974,8.31376812 C99.9248801,8.30978261 98.8117763,7.24246377 98.8117763,5.39478261 Z" id="Path"></path>
            <path d="M104.499846,6.45094203 L104.499846,3.36297101 L103.690387,3.36297101 L103.690387,2.65115942 L104.544339,2.59376812 L104.656742,1.03623188 L105.432637,1.03623188 L105.432637,2.59376812 L106.904806,2.59376812 L106.904806,3.36297101 L105.432637,3.36297101 L105.432637,6.46210145 C105.432637,7.1507971 105.645734,7.54137681 106.275661,7.54137681 C106.488303,7.52582732 106.697077,7.47522076 106.893878,7.39152174 L107.073411,8.10333333 C106.769766,8.20695652 106.398992,8.30978261 106.05866,8.30978261 C104.893258,8.30978261 104.499846,7.55253623 104.499846,6.45094203 Z" id="Path"></path>
            <path d="M107.346613,5.39478261 C107.346613,3.52398551 108.537775,2.45666667 109.875685,2.45666667 C111.213596,2.45666667 112.403196,3.52398551 112.403196,5.39478261 C112.403196,7.24246377 111.212034,8.30978261 109.874124,8.30978261 C108.536214,8.30978261 107.346613,7.24246377 107.346613,5.39478261 Z M111.44933,5.39478261 C111.44933,4.10905797 110.820184,3.23702899 109.875685,3.23702899 C108.942895,3.23702899 108.302041,4.10905797 108.302041,5.39478261 C108.302041,6.67014493 108.942895,7.52942029 109.875685,7.52942029 C110.820184,7.52942029 111.44933,6.66855072 111.44933,5.39478261 Z" id="Shape"></path>
            <path d="M113.574063,2.59376812 L114.339029,2.59376812 L114.417087,3.60369565 L114.451432,3.60369565 C114.822207,2.90384058 115.388125,2.45666667 116.00244,2.45666667 C116.203241,2.45027608 116.402928,2.48947977 116.587093,2.57144928 L116.406779,3.39724638 C116.237292,3.33514003 116.058391,3.30410732 115.878328,3.30557971 C115.417787,3.30557971 114.863577,3.64992754 114.495925,4.59130435 L114.495925,8.17268116 L113.574063,8.17268116 L113.574063,2.59376812 Z" id="Path"></path>
            <path d="M34.3173202,11.8815942 L35.4382299,11.8815942 L36.8541979,15.8989855 C37.0345114,16.4155072 37.2031162,16.9551449 37.382649,17.4716667 L37.4279226,17.4716667 C37.6074554,16.9551449 37.7534235,16.4155072 37.9337369,15.8989855 L39.3270682,11.8815942 L40.4628089,11.8815942 L40.4628089,19.4118116 L39.5885618,19.4118116 L39.5885618,15.2668841 C39.5885618,14.6013043 39.6666195,13.7061594 39.7126736,13.0405797 L39.6674001,13.0405797 L39.0827474,14.7503623 L37.6894161,18.6561594 L37.0711985,18.6561594 L35.6770867,14.7503623 L35.0932145,13.0405797 L35.047941,13.0405797 C35.0932145,13.7061594 35.1603442,14.6013043 35.1603442,15.2668841 L35.1603442,19.4118116 L34.3173202,19.4118116 L34.3173202,11.8815942 Z" id="Path"></path>
            <path d="M41.7062692,17.9650725 C41.7062692,16.7486957 42.7296066,16.1405072 45.0565089,15.8758696 C45.0565089,15.1648551 44.8317025,14.4761594 43.932477,14.4761594 C43.3025507,14.4761594 42.7296066,14.7742754 42.3026306,15.0723913 L41.9427843,14.4187681 C42.4485986,14.0855797 43.2127843,13.695 44.0893731,13.695 C45.4272833,13.695 45.9892993,14.6021014 45.9892993,15.9906522 L45.9892993,19.4118116 L45.2251137,19.4118116 L45.1470559,18.7454348 L45.1127105,18.7454348 C44.595968,19.1822464 43.9894591,19.548913 43.3033313,19.548913 C42.392397,19.548913 41.7062692,18.9638406 41.7062692,17.9650725 Z M45.0565089,18.0447826 L45.0565089,16.5 C43.235421,16.7295652 42.6054948,17.1886957 42.6054948,17.9005072 C42.6054948,18.5318116 43.0332514,18.7956522 43.5726306,18.7956522 C44.1120098,18.7956522 44.5280578,18.5278261 45.0565089,18.0455797 L45.0565089,18.0447826 Z" id="Shape"></path>
            <path d="M47.416976,13.8328986 L48.1811616,13.8328986 L48.2592194,14.6363768 L48.2927843,14.6363768 C48.8095267,14.1086957 49.3715427,13.695 50.1248002,13.695 C51.271469,13.695 51.7882114,14.4530435 51.7882114,15.8758696 L51.7882114,19.4118116 L50.8671297,19.4118116 L50.8671297,16.0026087 C50.8671297,14.9576087 50.5548986,14.5104348 49.8328642,14.5104348 C49.2716288,14.5104348 48.8891457,14.8085507 48.3380578,15.3713043 L48.3380578,19.4118116 L47.416976,19.4118116 L47.416976,13.8328986 Z" id="Path"></path>
            <path d="M52.8771174,17.9650725 C52.8771174,16.7486957 53.8996742,16.1405072 56.2265765,15.8758696 C56.2265765,15.1648551 56.0017701,14.4761594 55.1025446,14.4761594 C54.4733989,14.4761594 53.8996742,14.7742754 53.4726982,15.0723913 L53.1128519,14.4187681 C53.6186663,14.0855797 54.3836325,13.695 55.2602213,13.695 C56.597351,13.695 57.1593669,14.6021014 57.1593669,15.9906522 L57.1593669,19.4118116 L56.3951813,19.4118116 L56.3171235,18.7454348 L56.2796558,18.7454348 C55.7629133,19.1822464 55.1556238,19.548913 54.4702766,19.548913 C53.5624647,19.548913 52.8771174,18.9638406 52.8771174,17.9650725 Z M56.2265765,18.0447826 L56.2265765,16.5 C54.4054886,16.7295652 53.776343,17.1886957 53.776343,17.9005072 C53.776343,18.5318116 54.203319,18.7956522 54.7426982,18.7956522 C55.2820774,18.7956522 55.6981254,18.5278261 56.2265765,18.0455797 L56.2265765,18.0447826 Z" id="Shape"></path>
            <path d="M58.1374309,20.4791304 C58.1374309,20.0080435 58.4410756,19.5608696 58.9359619,19.2165217 L58.9359619,19.1702899 C58.6271938,18.9786374 58.4425415,18.6328406 58.4520037,18.2639855 C58.4520037,17.7928986 58.7642348,17.4254348 59.0483651,17.2277536 L59.0483651,17.1815217 C58.6061006,16.8120418 58.3466131,16.2616528 58.3396005,15.6781884 C58.3396005,14.4610145 59.2840996,13.6918116 60.3972034,13.6918116 C60.6616006,13.6897125 60.9241925,13.7364296 61.1723171,13.8297101 L63.0706822,13.8297101 L63.0706822,14.5534783 L61.9466503,14.5534783 C62.2405582,14.8602273 62.4028857,15.2737762 62.3978242,15.7028986 C62.3978242,16.8985507 61.5095267,17.6430435 60.3972034,17.6430435 C60.1126279,17.6414373 59.8320249,17.5747044 59.5760356,17.4477536 C59.3855747,17.6199275 59.227898,17.804058 59.227898,18.1133333 C59.227898,18.4696377 59.4527044,18.7223188 60.1942532,18.7223188 L61.2511555,18.7223188 C62.5211555,18.7223188 63.1620098,19.1208696 63.1620098,20.0534783 C63.1620098,21.0897101 62.0941795,21.9816667 60.3972034,21.9816667 C59.0592932,21.9824638 58.1374309,21.442029 58.1374309,20.4791304 Z M62.2627843,20.1921739 C62.2627843,19.6756522 61.8724954,19.5034783 61.1613891,19.5034783 L60.21689,19.5034783 C59.977943,19.5053885 59.7398249,19.474558 59.508906,19.4118116 C59.1186171,19.6987681 58.94689,20.0311594 58.94689,20.3523913 C58.94689,20.9494203 59.5424708,21.3280435 60.5314628,21.3280435 C61.577437,21.3280435 62.2627843,20.7772464 62.2627843,20.1921739 L62.2627843,20.1921739 Z M61.5548002,15.6813768 C61.5548002,14.865942 61.0372772,14.3844928 60.3972034,14.3844928 C59.7571297,14.3844928 59.2388261,14.8627536 59.2388261,15.6813768 C59.2388261,16.5 59.7672772,17.0125362 60.3972034,17.0125362 C61.0271297,17.0125362 61.5548002,16.5 61.5548002,15.6813768 L61.5548002,15.6813768 Z" id="Shape"></path>
            <path d="M63.4679963,16.633913 C63.4679963,14.8085507 64.670086,13.695 65.9182299,13.695 C67.3115612,13.695 68.0983835,14.7168841 68.0983835,16.3126812 C68.1003418,16.4928974 68.0891224,16.6730114 68.0648187,16.8515217 L64.37815,16.8515217 C64.4452797,18.0344203 65.1540443,18.7916667 66.1992379,18.7916667 C66.6846109,18.7859847 67.1575758,18.6343266 67.5590043,18.3556522 L67.8852858,18.975 C67.4169392,19.2850725 66.8283835,19.548913 66.089957,19.548913 C64.6255931,19.548913 63.4679963,18.4584783 63.4679963,16.633913 Z M67.2928273,16.1747826 C67.2928273,15.0500725 66.797941,14.4418841 65.9439889,14.4418841 C65.1790227,14.4418841 64.4827474,15.0723913 64.3703442,16.1747826 L67.2928273,16.1747826 Z" id="Shape"></path>
            <path d="M69.2294407,13.8328986 L69.9936263,13.8328986 L70.0716841,14.6363768 L70.1052489,14.6363768 C70.5735956,14.1086957 71.1504425,13.695 71.802225,13.695 C72.6343208,13.695 73.0839336,14.0935507 73.30874,14.7631159 C73.8816841,14.1318116 74.4437001,13.695 75.1040688,13.695 C76.2281008,13.695 76.76748,14.4530435 76.76748,15.8758696 L76.76748,19.4118116 L75.8495206,19.4118116 L75.8495206,16.0026087 C75.8495206,14.9576087 75.5240197,14.5104348 74.8347695,14.5104348 C74.4077935,14.5104348 73.9698894,14.7973913 73.464075,15.3713043 L73.464075,19.4118116 L72.545335,19.4118116 L72.545335,16.0026087 C72.545335,14.9576087 72.2190535,14.5104348 71.5219975,14.5104348 C71.1176583,14.5104348 70.6571174,14.7973913 70.151303,15.3713043 L70.151303,19.4118116 L69.2294407,19.4118116 L69.2294407,13.8328986 Z" id="Path"></path>
            <path d="M77.9055624,16.633913 C77.9055624,14.8085507 79.1084327,13.695 80.3557959,13.695 C81.7499078,13.695 82.5367302,14.7168841 82.5367302,16.3126812 C82.5382967,16.4928867 82.527079,16.6729713 82.5031653,16.8515217 L78.8164966,16.8515217 C78.8836263,18.0344203 79.5916103,18.7916667 80.6368039,18.7916667 C81.1224216,18.7859995 81.5956405,18.6343471 81.997351,18.3556522 L82.3228519,18.975 C81.8506023,19.2850725 81.2667302,19.548913 80.527523,19.548913 C79.0631592,19.548913 77.9055624,18.4584783 77.9055624,16.633913 Z M81.7303934,16.1747826 C81.7303934,15.0500725 81.2362876,14.4418841 80.381555,14.4418841 C79.6173694,14.4418841 78.9203135,15.0723913 78.8079103,16.1747826 L81.7303934,16.1747826 Z" id="Shape"></path>
            <path d="M83.6670068,13.8328986 L84.431973,13.8328986 L84.5100307,14.6363768 L84.5443762,14.6363768 C85.0611186,14.1086957 85.6231346,13.695 86.3763921,13.695 C87.5230608,13.695 88.0398033,14.4530435 88.0398033,15.8758696 L88.0398033,19.4118116 L87.117941,19.4118116 L87.117941,16.0026087 C87.117941,14.9576087 86.8057099,14.5104348 86.0836755,14.5104348 C85.5216595,14.5104348 85.139957,14.8085507 84.5888691,15.3713043 L84.5888691,19.4118116 L83.6670068,19.4118116 L83.6670068,13.8328986 Z" id="Path"></path>
            <path d="M89.6329625,17.6900725 L89.6329625,14.6021014 L88.8235034,14.6021014 L88.8235034,13.8902899 L89.6774554,13.8328986 L89.7898586,12.2753623 L90.5657529,12.2753623 L90.5657529,13.836087 L92.0379226,13.836087 L92.0379226,14.6052899 L90.5657529,14.6052899 L90.5657529,17.7044203 C90.5657529,18.3931159 90.7788506,18.7836957 91.4087769,18.7836957 C91.6214069,18.7680629 91.8301681,18.7174595 92.0269945,18.6338406 L92.2065274,19.3456522 C91.9028826,19.4492754 91.5321082,19.5521014 91.1917763,19.5521014 C90.0255931,19.548913 89.6329625,18.7916667 89.6329625,17.6900725 Z" id="Path"></path>
            <path d="M95.07437,18.4361594 L95.636386,17.7697826 C96.1648371,18.3325362 96.906386,18.7111594 97.6705716,18.7111594 C98.6377074,18.7111594 99.2106515,18.2177536 99.2106515,17.4828261 C99.2106515,16.7144203 98.6822004,16.4728986 97.985925,16.1516667 L96.9290227,15.6813768 C96.2319668,15.3824638 95.4342163,14.8436232 95.4342163,13.7412319 C95.4342163,12.5934058 96.4122803,11.7484783 97.74941,11.7484783 C98.5677968,11.7470926 99.3526574,12.0803706 99.928783,12.673913 L99.4229687,13.294058 C98.9733559,12.8572464 98.4339766,12.5822464 97.7478488,12.5822464 C96.9274616,12.5822464 96.3763737,13.0071014 96.3763737,13.6838406 C96.3763737,14.4068116 97.017228,14.6826087 97.6018808,14.9352899 L98.6470744,15.3944203 C99.5057099,15.7730435 100.164518,16.2895652 100.164518,17.4031159 C100.164518,18.5987681 99.2090904,19.548913 97.6580824,19.548913 C96.6844418,19.5524937 95.7514338,19.1506657 95.07437,18.4361594 L95.07437,18.4361594 Z" id="Path"></path>
            <path d="M100.434597,21.6955072 L100.61413,20.9494203 C100.748781,20.9945422 100.888668,21.0213431 101.030178,21.0291304 C101.648396,21.0291304 102.044929,20.5237681 102.266613,19.8334783 L102.389945,19.4205797 L100.198082,13.8305072 L101.15351,13.8305072 L102.266613,16.9184783 C102.435218,17.4007246 102.62646,17.9746377 102.795065,18.4911594 L102.839557,18.4911594 C102.995673,17.9857971 103.151789,17.4118841 103.300879,16.9184783 L104.278162,13.8305072 L105.177388,13.8305072 L103.120565,19.8685507 C102.738863,20.9701449 102.176847,21.8078986 101.075452,21.8078986 C100.856928,21.8104193 100.639776,21.7723359 100.434597,21.6955072 L100.434597,21.6955072 Z" id="Path"></path>
            <path d="M105.398291,18.7805072 L105.858832,18.1492029 C106.327179,18.5389855 106.814259,18.8147826 107.466042,18.8147826 C108.185734,18.8147826 108.545581,18.4242029 108.545581,17.9419565 C108.545581,17.3688406 107.893018,17.1161594 107.296656,16.8865942 C106.521543,16.5996377 105.700375,16.2202174 105.700375,15.2796377 C105.700375,14.3844928 106.397431,13.695 107.589373,13.695 C108.20811,13.7064949 108.805364,13.9286835 109.286349,14.3263043 L108.836736,14.9233333 C108.465962,14.6363768 108.072551,14.4299275 107.587812,14.4299275 C106.901684,14.4299275 106.587111,14.8085507 106.587111,15.2334058 C106.587111,15.761087 107.149127,15.9563768 107.767345,16.1978986 C108.554167,16.4960145 109.430756,16.8292029 109.430756,17.8845652 C109.430756,18.7916667 108.722772,19.548913 107.430135,19.548913 C106.687263,19.5347006 105.971032,19.2638352 105.398291,18.7805072 L105.398291,18.7805072 Z" id="Path"></path>
            <path d="M110.804573,17.6900725 L110.804573,14.6021014 L109.995114,14.6021014 L109.995114,13.8902899 L110.849846,13.8328986 L110.96225,12.2721739 L111.737363,12.2721739 L111.737363,13.8328986 L113.210313,13.8328986 L113.210313,14.6021014 L111.737363,14.6021014 L111.737363,17.7012319 C111.737363,18.3899275 111.951242,18.7805072 112.580387,18.7805072 C112.793044,18.7650554 113.001834,18.7144451 113.198605,18.6306522 L113.378918,19.3424638 C113.075274,19.446087 112.704499,19.548913 112.364167,19.548913 C111.197984,19.548913 110.804573,18.7916667 110.804573,17.6900725 Z" id="Path"></path>
            <path d="M113.65212,16.633913 C113.65212,14.8085507 114.854991,13.695 116.103135,13.695 C117.496466,13.695 118.283288,14.7168841 118.283288,16.3126812 C118.285247,16.4928974 118.274027,16.6730114 118.249723,16.8515217 L114.563055,16.8515217 C114.630184,18.0344203 115.338168,18.7916667 116.384143,18.7916667 C116.869516,18.7859847 117.342481,18.6343266 117.743909,18.3556522 L118.070191,18.975 C117.601844,19.2850725 117.013288,19.548913 116.274862,19.548913 C114.809717,19.548913 113.65212,18.4584783 113.65212,16.633913 Z M117.476951,16.1747826 C117.476951,15.0500725 116.982846,14.4418841 116.128113,14.4418841 C115.363927,14.4418841 114.666872,15.0723913 114.554468,16.1747826 L117.476951,16.1747826 Z" id="Shape"></path>
            <path d="M119.413565,13.8328986 L120.17775,13.8328986 L120.255808,14.6363768 L120.289373,14.6363768 C120.75772,14.1086957 121.334567,13.695 121.986349,13.695 C122.818445,13.695 123.268058,14.0935507 123.492864,14.7631159 C124.065808,14.1318116 124.627824,13.695 125.288193,13.695 C126.412225,13.695 126.951604,14.4530435 126.951604,15.8758696 L126.951604,19.4118116 L126.029742,19.4118116 L126.029742,16.0026087 C126.029742,14.9576087 125.704241,14.5104348 125.014991,14.5104348 C124.588015,14.5104348 124.14933,14.7973913 123.643516,15.3713043 L123.643516,19.4118116 L122.722434,19.4118116 L122.722434,16.0026087 C122.722434,14.9576087 122.396152,14.5104348 121.699096,14.5104348 C121.294757,14.5104348 120.833436,14.7973913 120.328402,15.3713043 L120.328402,19.4118116 L119.40654,19.4118116 L119.413565,13.8328986 Z" id="Path"></path>
            <path d="M4.58589428,5.36289855 L0,0.679927536 L4.95276583,0.679927536 L12.2901967,8.17268116 L7.33743085,8.17268116 C5.31125527,8.17268116 3.66871543,9.84999119 3.66871543,11.919058 C3.66871543,13.9881248 5.31125527,15.6654348 7.33743085,15.6654348 L9.17178857,15.6654348 L12.840504,19.4118116 L7.33743085,19.4118116 C3.28507969,19.4118116 4.96269888e-16,16.0571915 0,11.919058 C0,8.87971014 1.46748617,6.43021739 4.58589428,5.36289855 Z" id="Path"></path>
            <path d="M17.4263983,14.7288406 L22.0122926,19.4118116 L17.0595267,19.4118116 L9.72209588,11.919058 L14.6748617,11.919058 C16.7010373,11.919058 18.3435771,10.2417479 18.3435771,8.17268116 C18.3435771,6.10361438 16.7010373,4.42630435 14.6748617,4.42630435 L12.840504,4.42630435 L9.17178857,0.679927536 L14.6748617,0.679927536 C18.7272129,0.679927536 22.0122926,4.0345476 22.0122926,8.17268116 C22.0122926,11.2112319 20.5448064,13.6607246 17.4263983,14.7288406 Z" id="Path"></path>
            <rect id="Rectangle" x="28.010252" y="0.679927536" width="1" height="18.7318841"></rect>
        </g>
    </g>
</svg>