<svg xmlns="http://www.w3.org/2000/svg" viewBox="0 0 141.33 25"><defs></defs><title>politeia-logo</title><g id="Layer_2" data-name="Layer 2"><g id="Layer_1-2" data-name="Layer 1"><path fill="#fff" d="M41.24,9.1h6.39c3.73,0,6,2.21,6,5.4v.05c0,3.61-2.82,5.49-6.32,5.49H44.68v4.69H41.24ZM47.41,17a2.42,2.42,0,0,0,2.72-2.37v0c0-1.54-1.07-2.37-2.79-2.37H44.68V17Z"/><path fill="#fff" d="M54.79,17v-.05a8.31,8.31,0,0,1,16.62,0v0A8.31,8.31,0,0,1,54.79,17Zm13,0v-.05A4.74,4.74,0,0,0,63.08,12a4.68,4.68,0,0,0-4.69,4.87v0a4.75,4.75,0,0,0,4.73,4.92A4.68,4.68,0,0,0,67.81,17Z"/><path fill="#fff" d="M73.24,9.1h3.44V21.6h7.8v3.13H73.24Z"/><path fill="#fff" d="M86.11,9.1h3.44V24.73H86.11Z"/><path fill="#fff" d="M95.92,12.27H91.16V9.1h13v3.17H99.36V24.73H95.92Z"/><path fill="#fff" d="M105.7,9.1h11.8v3.06h-8.38v3.17h7.37v3.06h-7.37v3.28h8.49v3.06H105.7Z"/><path fill="#fff" d="M119.8,9.1h3.44V24.73H119.8Z"/><path fill="#fff" d="M131.46,9h3.17l6.7,15.75h-3.6l-1.43-3.51h-6.61l-1.43,3.51h-3.51Zm3.61,9.21L133,13.12l-2.08,5.07Z"/><path fill="#fff" d="M24.58,0H21.45V4.1h3.13a4.1,4.1,0,1,1,0,8.19H16.39v8.19h4.09V16.39h4.1A8.2,8.2,0,1,0,24.58,0Z"/><circle fill="#fff" cx="18.44" cy="2.05" r="2.05"/><path fill="#fff" d="M16.39,4.1h-4.1V8.19H8.19a8.2,8.2,0,0,0,0,16.39h3.13v-4.1H8.19a4.1,4.1,0,0,1,0-8.19h8.2V4.1Z"/><path fill="#fff" d="M14.34,20.48a2.05,2.05,0,0,0-2.05,2.05h0a2.05,2.05,0,1,0,4.1,0h0A2.05,2.05,0,0,0,14.34,20.48Z"/></g></g></svg>
