<?xml version="1.0" standalone="no"?>
<!DOCTYPE svg PUBLIC "-//W3C//DTD SVG 20010904//EN"
 "http://www.w3.org/TR/2001/REC-SVG-20010904/DTD/svg10.dtd">
<svg version="1.0" xmlns="http://www.w3.org/2000/svg"
 width="700.000000pt" height="700.000000pt" viewBox="0 0 700.000000 700.000000"
 preserveAspectRatio="xMidYMid meet">
<metadata>
Created by potrace 1.11, written by Peter Selinger 2001-2013
</metadata>
<g transform="translate(0.000000,700.000000) scale(0.100000,-0.100000)"
fill="#000000" stroke="none">
<path d="M3723 5392 c-73 -26 -127 -64 -161 -115 -95 -137 -76 -306 44 -416
164 -150 427 -90 504 116 75 202 -58 412 -272 429 -46 3 -77 0 -115 -14z"/>
<path d="M4260 5098 l0 -315 148 -6 c209 -8 320 -44 441 -143 238 -196 304
-518 163 -789 -52 -101 -173 -220 -272 -268 -137 -67 -136 -67 -717 -67 l-523
0 0 630 0 630 -315 0 -315 0 0 -314 0 -313 -247 -6 c-266 -6 -325 -14 -485
-67 -182 -61 -338 -159 -483 -305 -247 -247 -369 -544 -368 -895 0 -267 68
-488 216 -710 75 -112 252 -284 366 -354 229 -141 428 -196 714 -196 l157 0 0
315 0 315 -137 0 c-163 0 -234 15 -348 74 -95 48 -205 152 -253 238 -204 360
-32 799 363 929 69 23 77 24 603 27 l532 3 0 -636 0 -635 315 0 315 0 2 317 3
318 255 6 c270 6 319 12 475 65 360 121 662 426 785 792 84 252 84 553 -1 806
-145 434 -526 763 -974 841 -49 8 -163 18 -252 22 l-163 6 0 -315z"/>
<path d="M3107 2230 c-137 -35 -237 -162 -237 -302 0 -179 117 -306 291 -316
102 -6 163 14 233 79 74 67 100 129 101 234 0 65 -5 89 -24 130 -32 64 -99
131 -158 156 -55 24 -152 32 -206 19z"/>
</g>
</svg>
