<svg xmlns="http://www.w3.org/2000/svg" width="13.042" height="12.997" viewBox="0 0 13.042 12.997"><g transform="translate(0 0)"><path d="M4.776,10.312l-.66.653a1.48,1.48,0,0,1-2.074,0,1.427,1.427,0,0,1,0-2.033l2.429-2.4c.5-.5,1.45-1.23,2.141-.548A.807.807,0,1,0,7.75,4.839c-1.173-1.16-2.907-.946-4.418.548L.9,7.789a3.032,3.032,0,0,0,0,4.319,3.105,3.105,0,0,0,4.351,0l.66-.653a.807.807,0,1,0-1.139-1.142ZM12.138.982A2.893,2.893,0,0,0,7.949.822l-.823.814A.807.807,0,1,0,8.265,2.778l.822-.813A1.312,1.312,0,0,1,11,2.125a1.426,1.426,0,0,1,0,2.034L8.408,6.721c-1.185,1.172-1.741.622-1.978.387A.807.807,0,1,0,5.291,8.251a2.553,2.553,0,0,0,1.816.8A3.563,3.563,0,0,0,9.546,7.864L12.138,5.3a3.032,3.032,0,0,0,0-4.32Z" transform="translate(0 0)" fill="#c4cbd2"/></g></svg>