<svg xmlns="http://www.w3.org/2000/svg" viewBox="0 0 1760 519"><defs><style>.a{fill:#12163f;}</style></defs><title>transparent background - primary - positive - 1 color</title><path class="a" d="M604,239h59.43c35.65,0,58.61,18.33,58.61,49.55v.4c0,33.24-25.58,50.76-60.63,50.76H643.08V380H604Zm56.61,70.1c13.9,0,22.36-7.25,22.36-18.33v-.41c0-12.08-8.46-18.53-22.56-18.53H643.08V309.1Z"/><path class="a" d="M729.75,309.9v-.4c0-40.49,31.78-73.32,74.16-73.32s73.77,32.43,73.77,72.92v.4c0,40.49-31.78,73.32-74.16,73.32S729.75,350.39,729.75,309.9Zm109.09,0v-.4c0-20.34-14.33-38.07-35.32-38.07-20.8,0-34.73,17.32-34.73,37.67v.4c0,20.34,14.32,38.07,35.12,38.07C824.91,347.57,838.84,330.25,838.84,309.9Z"/><path class="a" d="M890.31,239h39.07V345.76h59.28V380H890.31Z"/><path class="a" d="M1004.53,239h39.28V380h-39.28Z"/><path class="a" d="M1100.82,273.24h-39.3V239h117.67v34.24h-39.3V380h-39.07Z"/><path class="a" d="M1196.88,239h108.4v33.24h-69.73v21.35h62.68v30.82h-62.68v22.35h70.74V380H1196.88Z"/><path class="a" d="M1324.48,239h39.28V380h-39.28Z"/><path class="a" d="M1430.68,239h35.62l56.75,141h-39.61l-9.71-25H1422.3l-9.52,25h-38.85Zm32.38,85.8L1448.2,285l-15,39.8Z"/><circle class="a" cx="416" cy="121.5" r="23.5"/><path class="a" d="M557,192a94,94,0,0,1-94,94H439.5v47h-47V239H463a47,47,0,0,0,0-94H448.9V98H463A94,94,0,0,1,557,192Z"/><circle class="a" cx="369" cy="356.5" r="23.5"/><path class="a" d="M228,286a94,94,0,0,1,94-94h23.5V145h47v94H322a47,47,0,0,0,0,94h14.1v47H322A94,94,0,0,1,228,286Z"/></svg>