<svg xmlns="http://www.w3.org/2000/svg" viewBox="0 0 1760 519"><defs><style>.a{fill:#091440;stroke:#fff;stroke-miterlimit:10;}.b{fill:#fff;}</style></defs><title>primary - negative - 1 color</title><rect class="a" width="1760" height="519"/><circle class="b" cx="413.99" cy="120.5" r="22.5"/><path class="b" d="M554,192a94,94,0,0,0-94-94h-9.1v45H460a48,48,0,0,1,48,48c0,26.51-19.42,48-49.92,48H390.49v94h43V284h28.44c53.81-.82,90.79-39.87,92.05-89.62C554,193.59,554,192.8,554,192Z"/><circle class="b" cx="366.99" cy="357.5" r="22.5"/><path class="b" d="M227,286a94,94,0,0,0,94,94h9.1V335H321a48,48,0,0,1-48-48c0-26.51,19.42-48,49.92-48h67.58V145h-43v49H319.06c-53.81.82-90.79,39.87-92.05,89.62C227,284.41,227,285.2,227,286Z"/><path class="b" d="M666.57,337.7H643V380H610V239H669.6c33.63,0,54,19.94,54,48.75v.4C723.58,320.78,698.2,337.7,666.57,337.7Zm25.59-49.35c0-13.9-9.67-21.35-25.18-21.35H643v43.1h24.57c15.51,0,24.58-9.26,24.58-21.35Z"/><path class="b" d="M809.51,381.5c-41.52,0-71.31-32-71.31-71.6v-.4c0-39.58,30.18-72,71.69-72s71.31,32,71.31,71.6v.4C881.2,349.08,851,381.5,809.51,381.5Zm38.69-72c0-22.23-16.05-40.76-38.68-40.76S771.2,286.9,771.2,309.13v.37c0,22.23,16.06,40.76,38.69,40.76s38.31-18.16,38.31-40.39Z"/><path class="b" d="M898.58,380V239h32V348.75h56.3V380Z"/><path class="b" d="M1009.52,380V239h32V380Z"/><path class="b" d="M1135.08,270V380h-32V270h-38.9V239H1175v31Z"/><path class="b" d="M1196.61,380V239H1298v31h-68.53v26.2h59.47v27.59h-59.47v27H1299V380Z"/><path class="b" d="M1322.31,380V239h32V380Z"/><path class="b" d="M1460.76,239h-31.33l-57.84,141h32.25l11.4-29h58.94l11.4,29h33Zm-16,37,18.5,46.85h-37Z"/></svg>