<svg xmlns="http://www.w3.org/2000/svg" viewBox="0 0 109.26 81.94"><defs><style>.cls-1{fill:#596d81;}</style></defs><title>Asset 1</title><g id="Layer_2" data-name="Layer 2"><g id="Layer_1-2" data-name="Layer 1"><path class="cls-1" d="M81.94,0H71.52V13.66H81.94a13.66,13.66,0,1,1,0,27.31H54.63V68.29H68.29V54.63H81.94A27.32,27.32,0,1,0,81.94,0Z"/><circle class="cls-1" cx="61.46" cy="6.83" r="6.83"/><path class="cls-1" d="M54.63,13.66H41V27.31H27.31a27.32,27.32,0,0,0,0,54.63H37.74V68.29H27.31a13.66,13.66,0,0,1,0-27.32H54.63V13.66Z"/><path class="cls-1" d="M47.8,68.29A6.82,6.82,0,0,0,41,75.11h0a6.83,6.83,0,0,0,13.66,0h0A6.82,6.82,0,0,0,47.8,68.29Z"/></g></g></svg>
