<svg xmlns="http://www.w3.org/2000/svg" width="20.922" height="14" viewBox="0 0 20.922 14" className="code"><g transform="translate(0.5 0.502)"><path d="M194.732,65.4l-.618-.161a.291.291,0,0,0-.234.024.311.311,0,0,0-.155.185l-3.718,12.22a.271.271,0,0,0,.025.232.321.321,0,0,0,.194.147l.618.161a.291.291,0,0,0,.234-.024.312.312,0,0,0,.154-.184l3.718-12.221a.271.271,0,0,0-.025-.232A.321.321,0,0,0,194.732,65.4Z" transform="translate(-182.518 -65.225)" fill="#c4cbd2" stroke="#c4cbd2" stroke-width="1"/><path d="M5.8,119.535a.284.284,0,0,0-.1-.213l-.5-.464a.33.33,0,0,0-.459,0L.1,123.181a.278.278,0,0,0,0,.427l4.645,4.323a.33.33,0,0,0,.459,0l.5-.464a.278.278,0,0,0,0-.427l-3.917-3.646L5.7,119.748A.284.284,0,0,0,5.8,119.535Z" transform="translate(0 -116.896)" fill="#c4cbd2" stroke="#c4cbd2" stroke-width="1"/><path d="M362.013,123.178l-4.645-4.323a.329.329,0,0,0-.458,0l-.5.464a.278.278,0,0,0,0,.427l3.917,3.646-3.917,3.646a.278.278,0,0,0,0,.427l.5.464a.33.33,0,0,0,.458,0l4.645-4.323a.278.278,0,0,0,0-.427Z" transform="translate(-342.191 -116.893)" fill="#c4cbd2" stroke="#c4cbd2" stroke-width="1"/></g></svg>