<svg xmlns="http://www.w3.org/2000/svg" width="13.437" height="13.995" viewBox="0 0 13.437 13.995"><g transform="translate(0 0)"><g transform="translate(3.128 0.982)"><path d="M32.584,12.486h9.658a.326.326,0,0,0,.326-.326V10.485a.326.326,0,0,0-.326-.326H32.584a.326.326,0,0,0-.326.326V12.16A.326.326,0,0,0,32.584,12.486Z" transform="translate(-32.258 -10.159)" fill="#c4cbd2"/><path d="M42.241,40.158H32.584a.326.326,0,0,0-.326.326v1.675a.326.326,0,0,0,.326.326h9.658a.326.326,0,0,0,.326-.326V40.484A.326.326,0,0,0,42.241,40.158Z" transform="translate(-32.258 -35.339)" fill="#c4cbd2"/><path d="M42.241,71.064H32.584a.326.326,0,0,0-.326.326v1.675a.326.326,0,0,0,.326.326h9.658a.326.326,0,0,0,.326-.326V71.39A.326.326,0,0,0,42.241,71.064Z" transform="translate(-32.258 -61.28)" fill="#c4cbd2"/></g><path d="M.3,5.223a.246.246,0,0,0,.192-.059l.15-.131V7.165a.247.247,0,0,0,.247.247h.254a.247.247,0,0,0,.247-.247V4.314a.247.247,0,0,0-.247-.247H.883a.247.247,0,0,0-.16.059l-.637.543A.247.247,0,0,0,.044,5L.13,5.12A.248.248,0,0,0,.3,5.223Z" transform="translate(0.001 -4.067)" fill="#c4cbd2"/><path d="M1.292,36.813a.243.243,0,0,0-.161.253l.016.162a.243.243,0,0,0,.355.193.61.61,0,0,1,.474-.087.312.312,0,0,1,.233.2c.061.185.064.48-.463,1.115l-.407.486a2.7,2.7,0,0,1-.211.228.243.243,0,0,0-.079.18v.239a.244.244,0,0,0,.243.243H2.774a.244.244,0,0,0,.243-.243v-.126a.244.244,0,0,0-.243-.243H2c.074-.084.168-.2.278-.335a2.1,2.1,0,0,0,.7-1.684.837.837,0,0,0-.443-.609,1.111,1.111,0,0,0-.507-.1A2.241,2.241,0,0,0,1.292,36.813Z" transform="translate(-1.049 -31.382)" fill="#c4cbd2"/><path d="M2.353,71.166a.874.874,0,0,0,.119-.077.773.773,0,0,0,.287-.623.827.827,0,0,0-.348-.706,1.165,1.165,0,0,0-.7-.189,2.311,2.311,0,0,0-.651.1.241.241,0,0,0-.171.246l.009.141a.241.241,0,0,0,.321.211,1.062,1.062,0,0,1,.357-.072.691.691,0,0,1,.116.01.359.359,0,0,1,.3.206.386.386,0,0,1-.013.3c-.1.163-.391.2-.552.2a.24.24,0,0,0-.233.24v.106a.243.243,0,0,0,.243.241.814.814,0,0,1,.417.078.331.331,0,0,1,.171.308.371.371,0,0,1-.181.34.876.876,0,0,1-.723.005.241.241,0,0,0-.316.21l-.011.14a.241.241,0,0,0,.152.243.875.875,0,0,0,.164.045,2.081,2.081,0,0,0,.456.048,1.4,1.4,0,0,0,.954-.308,1.007,1.007,0,0,0,.25-.919A.689.689,0,0,0,2.353,71.166Z" transform="translate(-0.797 -58.917)" fill="#c4cbd2"/></g></svg>