<svg xmlns="http://www.w3.org/2000/svg" width="13.262" height="12.003" viewBox="0 0 13.262 12.003"><g transform="translate(0 0.001)"><path d="M4.555,36.547H1.518a1.413,1.413,0,0,0-1.076.477A1.643,1.643,0,0,0,0,38.184v3.273a1.642,1.642,0,0,0,.443,1.159,1.413,1.413,0,0,0,1.076.477H3.29a.707.707,0,0,1,.538.239.821.821,0,0,1,.221.58v.273a2.188,2.188,0,0,1-.593,1.543,1.883,1.883,0,0,1-1.431.639H1.518a.47.47,0,0,0-.356.162.545.545,0,0,0-.15.384V48a.546.546,0,0,0,.15.384.47.47,0,0,0,.356.162h.506a3.7,3.7,0,0,0,1.57-.345,4.075,4.075,0,0,0,1.293-.934,4.434,4.434,0,0,0,.866-1.394,4.539,4.539,0,0,0,.32-1.692v-6a1.643,1.643,0,0,0-.443-1.159A1.413,1.413,0,0,0,4.555,36.547Z" transform="translate(0 -36.547)" fill="#c4cbd2"/><path d="M261.448,37.024a1.413,1.413,0,0,0-1.075-.477h-3.037a1.413,1.413,0,0,0-1.076.477,1.643,1.643,0,0,0-.443,1.159v3.273a1.643,1.643,0,0,0,.443,1.159,1.413,1.413,0,0,0,1.076.477h1.772a.707.707,0,0,1,.538.239.822.822,0,0,1,.221.58v.273a2.188,2.188,0,0,1-.593,1.543,1.882,1.882,0,0,1-1.431.639h-.506a.47.47,0,0,0-.356.162.545.545,0,0,0-.15.384V48a.545.545,0,0,0,.15.384.47.47,0,0,0,.356.162h.506a3.7,3.7,0,0,0,1.57-.345,4.076,4.076,0,0,0,1.293-.934,4.432,4.432,0,0,0,.866-1.394,4.54,4.54,0,0,0,.32-1.692v-6A1.642,1.642,0,0,0,261.448,37.024Z" transform="translate(-248.629 -36.547)" fill="#c4cbd2"/></g></svg>