<svg xmlns="http://www.w3.org/2000/svg" width="16" height="16" viewBox="0 0 16 16"><path d="M14.927,9.449a8.068,8.068,0,0,0-2.911-2.984A7.678,7.678,0,0,0,8,5.365a7.679,7.679,0,0,0-4.016,1.1A8.067,8.067,0,0,0,1.073,9.449,8.177,8.177,0,0,0,0,13.565a8.1,8.1,0,0,0,1.526,4.821,7.85,7.85,0,0,0,3.943,2.963.457.457,0,0,0,.417-.075.422.422,0,0,0,.135-.32q0-.032-.005-.577t-.005-.95l-.24.042a2.983,2.983,0,0,1-.578.037,4.3,4.3,0,0,1-.724-.075,1.6,1.6,0,0,1-.7-.32,1.354,1.354,0,0,1-.458-.657l-.1-.246a2.681,2.681,0,0,0-.328-.544,1.266,1.266,0,0,0-.453-.406l-.073-.054a.772.772,0,0,1-.135-.128.588.588,0,0,1-.094-.149q-.031-.075.052-.123a.661.661,0,0,1,.3-.048l.208.032a1.5,1.5,0,0,1,.516.256,1.707,1.707,0,0,1,.505.555,1.867,1.867,0,0,0,.578.667,1.206,1.206,0,0,0,.682.229,2.892,2.892,0,0,0,.594-.053,2.037,2.037,0,0,0,.469-.16,1.747,1.747,0,0,1,.51-1.1,6.974,6.974,0,0,1-1.068-.192,4.194,4.194,0,0,1-.979-.417,2.822,2.822,0,0,1-.839-.715,3.471,3.471,0,0,1-.547-1.121,5.456,5.456,0,0,1-.214-1.6,3.158,3.158,0,0,1,.823-2.2A2.937,2.937,0,0,1,3.792,8.76a1.428,1.428,0,0,1,.9.144,6.193,6.193,0,0,1,.87.411q.276.171.443.288a7.346,7.346,0,0,1,4,0l.4-.256a5.548,5.548,0,0,1,.958-.47A1.335,1.335,0,0,1,12.2,8.76a2.908,2.908,0,0,1,.083,2.178,3.159,3.159,0,0,1,.823,2.2,5.517,5.517,0,0,1-.214,1.607,3.336,3.336,0,0,1-.552,1.121,2.929,2.929,0,0,1-.844.71,4.2,4.2,0,0,1-.979.416,6.968,6.968,0,0,1-1.068.192A1.928,1.928,0,0,1,9.99,18.7v2.253a.431.431,0,0,0,.13.32.444.444,0,0,0,.411.075,7.849,7.849,0,0,0,3.943-2.963A8.106,8.106,0,0,0,16,13.565,8.183,8.183,0,0,0,14.927,9.449Z" transform="translate(0 -5.365)" fill="#c4cbd2"/></svg>